{"title":"Madonna The MDNA Tour 2012 BRRip 480p x264 AAC - VYTO [P2PDL]","uid":8904987,"size":613413481,"categoryP":"video","categoryS":"music_videos","magnet":"?xt=urn:btih:40db8dbf1e645ca4e413056a66ddf80a5fa924b1&amp;dn=Madonna+The+MDNA+Tour+2012+BRRip+480p+x264+AAC+-+VYTO+%5BP2PDL%5D&amp;tr=udp%3A%2F%2Ftracker.openbittorrent.com%3A80&amp;tr=udp%3A%2F%2Fopen.demonii.com%3A1337&amp;tr=udp%3A%2F%2Ftracker.coppersurfer.tk%3A6969&amp;tr=udp%3A%2F%2Fexodus.desync.com%3A6969","seeders":4,"leechers":1,"uploader":"Vitamin_X","files":4,"time":1378885523,"description":"_______ Visit us at our Semi Public Bittorrent Community ________\n  &lt;a href=&quot;\nhttp://p2pdl.com&quot; rel=&quot;nofollow&quot; target=&quot;_NEW&quot;&gt;\nhttp://p2pdl.com&lt;/a&gt;  _____________________________ &lt;a href=&quot; http://p2pdl.com&quot; rel=&quot;nofollow&quot; target=&quot;_NEW&quot;&gt; http://p2pdl.com&lt;/a&gt;\n\n\nMadonna The MDNA Tour 2012 BRRip 480p x264 AAC - VYTO\n\n\nGenre: Music\nPlot: (Not available)\nDirector: Danny Tull\nStars: Kevin Antunes, Kupono Aweau, Andrew Boyce\nRated: N/A\n\nInfo: &lt;a href=&quot;\nhttp://www.imdb.com/title/tt2910266/&quot; rel=&quot;nofollow&quot; target=&quot;_NEW&quot;&gt;\nhttp://www.imdb.com/title/tt2910266/&lt;/a&gt;\n\nGeneral\nFormat                         : MPEG-4\nFile size                      : 571 MiB\nDuration                       : 1h 59mn\nOverall bit rate mode          : Variable\nOverall bit rate               : 666 Kbps\n\nVideo\nFormat                         : AVC\nDuration                       : 1h 59mn\nBit rate                       : 599 Kbps\nWidth                          : 720 pixels\nHeight                         : 400 pixels\nDisplay aspect ratio           : 16:9\nFrame rate mode                : Constant\nFrame rate                     : 23.976 fps\nStream size                    : 513 MiB (90%)\nWriting library                : x264 core 138 r2358 9e941d1\n\nAudio\nFormat                         : AAC\nBit rate                       : 64.0 Kbps\nChannel(s)                     : 2 channels\nChannel positions              : Front: L R\nSampling rate                  : 48.0 KHz / 24.0 KHz\nStream size                    : 54.8 MiB (10%)\nLanguage                       : English\n\nSubtitle                       : Yes (English)\n\nSource                         : 720p.MBluRay.x264-TREBLE\n &lt;a href=&quot;\nhttp://ultraimg.com/images/tdXc.png&quot; rel=&quot;nofollow&quot; target=&quot;_NEW&quot;&gt;\nhttp://ultraimg.com/images/tdXc.png&lt;/a&gt; &lt;a href=&quot;\nhttp://ultraimg.com/images/YMcCX.png&quot; rel=&quot;nofollow&quot; target=&quot;_NEW&quot;&gt;\nhttp://ultraimg.com/images/YMcCX.png&lt;/a&gt; &lt;a href=&quot;\nhttp://ultraimg.com/images/p2EUF.png&quot; rel=&quot;nofollow&quot; target=&quot;_NEW&quot;&gt;\nhttp://ultraimg.com/images/p2EUF.png&lt;/a&gt; &lt;a href=&quot;\nhttp://ultraimg.com/images/ycQAn.png&quot; rel=&quot;nofollow&quot; target=&quot;_NEW&quot;&gt;\nhttp://ultraimg.com/images/ycQAn.png&lt;/a&gt; &lt;a href=&quot;\nhttp://ultraimg.com/images/ePAki.png&quot; rel=&quot;nofollow&quot; target=&quot;_NEW&quot;&gt;\nhttp://ultraimg.com/images/ePAki.png&lt;/a&gt; &lt;a href=&quot;\nhttp://ultraimg.com/images/BY73A.png&quot; rel=&quot;nofollow&quot; target=&quot;_NEW&quot;&gt;\nhttp://ultraimg.com/images/BY73A.png&lt;/a&gt;\n\n----------------------------------------------------------------------------------------------------\n\n\nEncoded using revolutionary 10bit encoding, which enables us to provide you more crispier \nand sharper images at small sizes, just make sure you follow our instructions without a fault.\nRecommend to you to use latest version of VLC player. Install K-Lite Codec Pack or shark007 codecs\nin case of any kind of problem in playback (For non-VLC Media Player users). Alternatively, install\nCore AVC codecs, the fastest decoder that there is coupled with Community Center Codec Pack and play\non Windows Media Player Classic. Check sample to be sure.\nEnjoy!\n\nEncoder Notes:Looking For Early Access To Anything You Can Provide DVDScr, R5, DVDR, BluRay, Direct\nAudio, Music Releases and Seedboxes. We require dedicated servers, so as to do more \nand fast releases of movies.\nIf You Got anything to offer please contact us at &quot;&lt;a class=&quot;__cf_email__&quot; href=&quot;/cdn-cgi/l/email-protection&quot; data-cfemail=&quot;5d2d2f3a1d35282e35733e3230&quot;&gt;[email&amp;#160;protected]&lt;/a&gt;&lt;script cf-hash='f9e31' type=&quot;text/javascript&quot;&gt;\n/* &lt;![CDATA[ */!function(){try{var t=&quot;currentScript&quot;in document?document.currentScript:function(){for(var t=document.getElementsByTagName(&quot;script&quot;),e=t.length;e--;)if(t[e].getAttribute(&quot;cf-hash&quot;))return t[e]}();if(t&amp;&amp;t.previousSibling){var e,r,n,i,c=t.previousSibling,a=c.getAttribute(&quot;data-cfemail&quot;);if(a){for(e=&quot;&quot;,r=parseInt(a.substr(0,2),16),n=2;a.length-n;n+=2)i=parseInt(a.substr(n,2),16)^r,e+=String.fromCharCode(i);e=document.createTextNode(e),c.parentNode.replaceChild(e,c)}}}catch(u){}}();/* ]]&gt; */&lt;/script&gt;&quot;.\n\nFacebook Fan Page:  \nSearch P2PDL on FB and don't forget to hit like!!!\n\nFor more of our team uploads visit @           &lt;a href=&quot;\nhttp://thepiratebay.se/user/varuttee&quot; rel=&quot;nofollow&quot; target=&quot;_NEW&quot;&gt;\nhttp://thepiratebay.se/user/varuttee&lt;/a&gt;","torrent":{"xt":"urn:btih:40db8dbf1e645ca4e413056a66ddf80a5fa924b1","amp;dn":"Madonna+The+MDNA+Tour+2012+BRRip+480p+x264+AAC+-+VYTO+%5BP2PDL%5D","amp;tr":["udp%3A%2F%2Ftracker.openbittorrent.com%3A80","udp%3A%2F%2Fopen.demonii.com%3A1337","udp%3A%2F%2Ftracker.coppersurfer.tk%3A6969","udp%3A%2F%2Fexodus.desync.com%3A6969"],"infoHash":"40db8dbf1e645ca4e413056a66ddf80a5fa924b1","infoHashBuffer":{"type":"Buffer","data":[64,219,141,191,30,100,92,164,228,19,5,106,102,221,248,10,95,169,36,177]},"announce":[],"urlList":[]}}